# xmcd
#
# Track frame offsets:
#	150
#	14197
#	29380
#	46735
#	62977
#	81072
#	96172
#	116112
#	128917
#	148327
#	162120
#	179695
#	204637
#	222485
#
# Disc length: 3191 seconds
#
# Revision: 0
# Processed by: cddbd v1.4PL0 Copyright (c) Steve Scherf et al.
# Submitted via: audiograbber 1.81.03
#
DISCID=d80c750e
DTITLE=Ottar Big Hand - Passion  Trust
DYEAR=1900
DGENRE=Country
TTITLE0=Swinging Doors Again
TTITLE1=Honky Tonk Boogie
TTITLE2=Light In The Dark
TTITLE3=a Couple More Years
TTITLE4=Almost Home
TTITLE5=Priseners Of The Blues
TTITLE6=You Are
TTITLE7=Two Old Cats Like Us
TTITLE8=Passion And Trust
TTITLE9=I Must Have Had A Good Time
TTITLE10=Clear As A Bell
TTITLE11=Case Of Bad News
TTITLE12=Diggin` For Love
TTITLE13=If Your`e Leaving (Can I Come Too)
EXTD=
EXTT0=
EXTT1=
EXTT2=
EXTT3=
EXTT4=
EXTT5=
EXTT6=
EXTT7=
EXTT8=
EXTT9=
EXTT10=
EXTT11=
EXTT12=
EXTT13=
PLAYORDER=
